<?xml version="1.0" encoding="UTF-8" standalone="no"?>
<!DOCTYPE svg PUBLIC "-//W3C//DTD SVG 1.1//EN" "http://www.w3.org/Graphics/SVG/1.1/DTD/svg11.dtd">
<!-- Created with Vectornator (http://vectornator.io/) -->
<svg height="45px" stroke-miterlimit="10" style="fill-rule:nonzero;clip-rule:evenodd;stroke-linecap:round;stroke-linejoin:round;" version="1.1" viewBox="0 0 16 20" width="100%" xml:space="preserve" xmlns="http://www.w3.org/2000/svg" xmlns:xlink="http://www.w3.org/1999/xlink">
<defs/>
<clipPath id="ArtboardFrame">
<rect height="20" width="16" x="0" y="0"/>
</clipPath>
<g clip-path="url(#ArtboardFrame)" id="Untitled">
<g opacity="1">
<path d="M8 11.223C11.0343 11.223 13.5035 8.75376 13.5035 5.7195C13.5035 2.68524 11.0343 0.216001 8 0.216001C4.96574 0.216001 2.4965 2.68524 2.4965 5.7195C2.4965 8.75376 4.96574 11.223 8 11.223ZM8 3.885C9.01142 3.885 9.8345 4.70808 9.8345 5.7195C9.8345 6.73092 9.01142 7.554 8 7.554C6.98858 7.554 6.1655 6.73092 6.1655 5.7195C6.1655 4.70808 6.98858 3.885 8 3.885Z" fill="#3b6bf9" fill-rule="nonzero" opacity="1" stroke="none"/>
<path d="M12.4676 10.735C11.2605 11.8382 9.67306 12.446 8 12.446C6.32694 12.446 4.73948 11.8382 3.53238 10.735C3.30735 10.5296 2.96491 10.5222 2.73132 10.7142C2.4965 10.9087 2.43902 11.2462 2.59801 11.5043L7.47778 19.4905C7.58907 19.6727 7.7872 19.784 8 19.784C8.2128 19.784 8.41093 19.6727 8.52222 19.4917L13.402 11.5055C13.561 11.2462 13.5035 10.9087 13.2699 10.7155C13.0326 10.5222 12.6914 10.5308 12.4676 10.735Z" fill="#3b6bf9" fill-rule="nonzero" opacity="1" stroke="none"/>
</g>
<g fill="#000000" opacity="1" stroke="none">
<path d="M3.82 29.004L4.2 29.004C4.17867 28.852 4.13333 28.718 4.064 28.602C3.99467 28.486 3.908 28.3893 3.804 28.312C3.7 28.2347 3.58133 28.176 3.448 28.136C3.31467 28.096 3.17333 28.076 3.024 28.076C2.80533 28.076 2.61133 28.1153 2.442 28.194C2.27267 28.2727 2.13133 28.38 2.018 28.516C1.90467 28.652 1.81867 28.8113 1.76 28.994C1.70133 29.1767 1.672 29.372 1.672 29.58C1.672 29.788 1.69933 29.9827 1.754 30.164C1.80867 30.3453 1.89067 30.5027 2 30.636C2.10933 30.7693 2.24667 30.874 2.412 30.95C2.57733 31.026 2.77067 31.064 2.992 31.064C3.35733 31.064 3.64533 30.964 3.856 30.764C4.06667 30.564 4.19067 30.284 4.228 29.924L3.848 29.924C3.84 30.0413 3.816 30.1507 3.776 30.252C3.736 30.3533 3.68067 30.4407 3.61 30.514C3.53933 30.5873 3.45533 30.6447 3.358 30.686C3.26067 30.7273 3.14933 30.748 3.024 30.748C2.85333 30.748 2.70667 30.716 2.584 30.652C2.46133 30.588 2.36067 30.502 2.282 30.394C2.20333 30.286 2.14533 30.1593 2.108 30.014C2.07067 29.8687 2.052 29.7147 2.052 29.552C2.052 29.4027 2.07067 29.2587 2.108 29.12C2.14533 28.9813 2.20333 28.858 2.282 28.75C2.36067 28.642 2.46067 28.556 2.582 28.492C2.70333 28.428 2.84933 28.396 3.02 28.396C3.22 28.396 3.39267 28.4467 3.538 28.548C3.68333 28.6493 3.77733 28.8013 3.82 29.004Z"/>
<path d="M4.632 28.932L4.632 31L4.972 31L4.972 30.08C4.972 29.9467 4.98533 29.8287 5.012 29.726C5.03867 29.6233 5.08133 29.536 5.14 29.464C5.19867 29.392 5.276 29.3373 5.372 29.3C5.468 29.2627 5.584 29.244 5.72 29.244L5.72 28.884C5.536 28.8787 5.384 28.916 5.264 28.996C5.144 29.076 5.04267 29.2 4.96 29.368L4.952 29.368L4.952 28.932L4.632 28.932Z"/>
<path d="M7.34 29.768L6.152 29.768C6.15733 29.688 6.17467 29.6127 6.204 29.542C6.23333 29.4713 6.27333 29.4093 6.324 29.356C6.37467 29.3027 6.43533 29.2607 6.506 29.23C6.57667 29.1993 6.656 29.184 6.744 29.184C6.82933 29.184 6.90733 29.1993 6.978 29.23C7.04867 29.2607 7.11 29.302 7.162 29.354C7.214 29.406 7.25533 29.468 7.286 29.54C7.31667 29.612 7.33467 29.688 7.34 29.768ZM7.668 30.344L7.332 30.344C7.30267 30.48 7.242 30.5813 7.15 30.648C7.058 30.7147 6.94 30.748 6.796 30.748C6.684 30.748 6.58667 30.7293 6.504 30.692C6.42133 30.6547 6.35333 30.6047 6.3 30.542C6.24667 30.4793 6.208 30.4073 6.184 30.326C6.16 30.2447 6.14933 30.1587 6.152 30.068L7.7 30.068C7.70533 29.9427 7.694 29.8107 7.666 29.672C7.638 29.5333 7.58733 29.4053 7.514 29.288C7.44067 29.1707 7.34333 29.074 7.222 28.998C7.10067 28.922 6.948 28.884 6.764 28.884C6.62267 28.884 6.49267 28.9107 6.374 28.964C6.25533 29.0173 6.15267 29.092 6.066 29.188C5.97933 29.284 5.912 29.3973 5.864 29.528C5.816 29.6587 5.792 29.8027 5.792 29.96C5.79733 30.1173 5.82067 30.2627 5.862 30.396C5.90333 30.5293 5.96533 30.644 6.048 30.74C6.13067 30.836 6.23267 30.9107 6.354 30.964C6.47533 31.0173 6.61867 31.044 6.784 31.044C7.01867 31.044 7.21333 30.9853 7.368 30.868C7.52267 30.7507 7.62267 30.576 7.668 30.344Z"/>
<path d="M9.884 30.992C9.82533 31.0267 9.744 31.044 9.64 31.044C9.552 31.044 9.482 31.0193 9.43 30.97C9.378 30.9207 9.352 30.84 9.352 30.728C9.25867 30.84 9.15 30.9207 9.026 30.97C8.902 31.0193 8.768 31.044 8.624 31.044C8.53067 31.044 8.442 31.0333 8.358 31.012C8.274 30.9907 8.20133 30.9573 8.14 30.912C8.07867 30.8667 8.03 30.8073 7.994 30.734C7.958 30.6607 7.94 30.572 7.94 30.468C7.94 30.3507 7.96 30.2547 8 30.18C8.04 30.1053 8.09267 30.0447 8.158 29.998C8.22333 29.9513 8.298 29.916 8.382 29.892C8.466 29.868 8.552 29.848 8.64 29.832C8.73333 29.8133 8.822 29.7993 8.906 29.79C8.99 29.7807 9.064 29.7673 9.128 29.75C9.192 29.7327 9.24267 29.7073 9.28 29.674C9.31733 29.6407 9.336 29.592 9.336 29.528C9.336 29.4533 9.322 29.3933 9.294 29.348C9.266 29.3027 9.23 29.268 9.186 29.244C9.142 29.22 9.09267 29.204 9.038 29.196C8.98333 29.188 8.92933 29.184 8.876 29.184C8.732 29.184 8.612 29.2113 8.516 29.266C8.42 29.3207 8.368 29.424 8.36 29.576L8.02 29.576C8.02533 29.448 8.052 29.34 8.1 29.252C8.148 29.164 8.212 29.0927 8.292 29.038C8.372 28.9833 8.46333 28.944 8.566 28.92C8.66867 28.896 8.77867 28.884 8.896 28.884C8.98933 28.884 9.082 28.8907 9.174 28.904C9.266 28.9173 9.34933 28.9447 9.424 28.986C9.49867 29.0273 9.55867 29.0853 9.604 29.16C9.64933 29.2347 9.672 29.332 9.672 29.452L9.672 30.516C9.672 30.596 9.67667 30.6547 9.686 30.692C9.69533 30.7293 9.72667 30.748 9.78 30.748C9.80933 30.748 9.844 30.7413 9.884 30.728L9.884 30.992ZM9.332 29.932C9.28933 29.964 9.23333 29.9873 9.164 30.002C9.09467 30.0167 9.022 30.0287 8.946 30.038C8.87 30.0473 8.79333 30.058 8.716 30.07C8.63867 30.082 8.56933 30.1013 8.508 30.128C8.44667 30.1547 8.39667 30.1927 8.358 30.242C8.31933 30.2913 8.3 30.3587 8.3 30.444C8.3 30.5 8.31133 30.5473 8.334 30.586C8.35667 30.6247 8.386 30.656 8.422 30.68C8.458 30.704 8.5 30.7213 8.548 30.732C8.596 30.7427 8.64667 30.748 8.7 30.748C8.812 30.748 8.908 30.7327 8.988 30.702C9.068 30.6713 9.13333 30.6327 9.184 30.586C9.23467 30.5393 9.272 30.4887 9.296 30.434C9.32 30.3793 9.332 30.328 9.332 30.28L9.332 29.932Z"/>
<path d="M10.672 28.932L10.672 28.312L10.332 28.312L10.332 28.932L9.98 28.932L9.98 29.232L10.332 29.232L10.332 30.548C10.332 30.644 10.3413 30.7213 10.36 30.78C10.3787 30.8387 10.4073 30.884 10.446 30.916C10.4847 30.948 10.5353 30.97 10.598 30.982C10.6607 30.994 10.736 31 10.824 31L11.084 31L11.084 30.7L10.928 30.7C10.8747 30.7 10.8313 30.698 10.798 30.694C10.7647 30.69 10.7387 30.6813 10.72 30.668C10.7013 30.6547 10.6887 30.636 10.682 30.612C10.6753 30.588 10.672 30.556 10.672 30.516L10.672 29.232L11.084 29.232L11.084 28.932L10.672 28.932Z"/>
<path d="M12.896 29.768L11.708 29.768C11.7133 29.688 11.7307 29.6127 11.76 29.542C11.7893 29.4713 11.8293 29.4093 11.88 29.356C11.9307 29.3027 11.9913 29.2607 12.062 29.23C12.1327 29.1993 12.212 29.184 12.3 29.184C12.3853 29.184 12.4633 29.1993 12.534 29.23C12.6047 29.2607 12.666 29.302 12.718 29.354C12.77 29.406 12.8113 29.468 12.842 29.54C12.8727 29.612 12.8907 29.688 12.896 29.768ZM13.224 30.344L12.888 30.344C12.8587 30.48 12.798 30.5813 12.706 30.648C12.614 30.7147 12.496 30.748 12.352 30.748C12.24 30.748 12.1427 30.7293 12.06 30.692C11.9773 30.6547 11.9093 30.6047 11.856 30.542C11.8027 30.4793 11.764 30.4073 11.74 30.326C11.716 30.2447 11.7053 30.1587 11.708 30.068L13.256 30.068C13.2613 29.9427 13.25 29.8107 13.222 29.672C13.194 29.5333 13.1433 29.4053 13.07 29.288C12.9967 29.1707 12.8993 29.074 12.778 28.998C12.6567 28.922 12.504 28.884 12.32 28.884C12.1787 28.884 12.0487 28.9107 11.93 28.964C11.8113 29.0173 11.7087 29.092 11.622 29.188C11.5353 29.284 11.468 29.3973 11.42 29.528C11.372 29.6587 11.348 29.8027 11.348 29.96C11.3533 30.1173 11.3767 30.2627 11.418 30.396C11.4593 30.5293 11.5213 30.644 11.604 30.74C11.6867 30.836 11.7887 30.9107 11.91 30.964C12.0313 31.0173 12.1747 31.044 12.34 31.044C12.5747 31.044 12.7693 30.9853 12.924 30.868C13.0787 30.7507 13.1787 30.576 13.224 30.344Z"/>
<path d="M13.856 29.984C13.856 29.8827 13.8667 29.784 13.888 29.688C13.9093 29.592 13.944 29.5067 13.992 29.432C14.04 29.3573 14.104 29.2973 14.184 29.252C14.264 29.2067 14.3613 29.184 14.476 29.184C14.5933 29.184 14.6933 29.206 14.776 29.25C14.8587 29.294 14.926 29.352 14.978 29.424C15.03 29.496 15.068 29.5793 15.092 29.674C15.116 29.7687 15.128 29.8667 15.128 29.968C15.128 30.064 15.1167 30.1587 15.094 30.252C15.0713 30.3453 15.0347 30.4287 14.984 30.502C14.9333 30.5753 14.868 30.6347 14.788 30.68C14.708 30.7253 14.6107 30.748 14.496 30.748C14.3867 30.748 14.2913 30.7267 14.21 30.684C14.1287 30.6413 14.062 30.584 14.01 30.512C13.958 30.44 13.9193 30.358 13.894 30.266C13.8687 30.174 13.856 30.08 13.856 29.984ZM15.456 31L15.456 28.144L15.116 28.144L15.116 29.208L15.108 29.208C15.0707 29.1467 15.0247 29.0953 14.97 29.054C14.9153 29.0127 14.8573 28.9793 14.796 28.954C14.7347 28.9287 14.6733 28.9107 14.612 28.9C14.5507 28.8893 14.4933 28.884 14.44 28.884C14.2827 28.884 14.1447 28.9127 14.026 28.97C13.9073 29.0273 13.8087 29.1047 13.73 29.202C13.6513 29.2993 13.5927 29.4133 13.554 29.544C13.5153 29.6747 13.496 29.8133 13.496 29.96C13.496 30.1067 13.516 30.2453 13.556 30.376C13.596 30.5067 13.6553 30.6213 13.734 30.72C13.8127 30.8187 13.9113 30.8973 14.03 30.956C14.1487 31.0147 14.288 31.044 14.448 31.044C14.592 31.044 14.724 31.0187 14.844 30.968C14.964 30.9173 15.052 30.8347 15.108 30.72L15.116 30.72L15.116 31L15.456 31Z"/>
<path d="M17.104 28.144L17.104 31L17.444 31L17.444 30.724L17.452 30.724C17.4893 30.7853 17.5353 30.8367 17.59 30.878C17.6447 30.9193 17.7027 30.952 17.764 30.976C17.8253 31 17.8873 31.0173 17.95 31.028C18.0127 31.0387 18.0693 31.044 18.12 31.044C18.2773 31.044 18.4153 31.016 18.534 30.96C18.6527 30.904 18.7513 30.8273 18.83 30.73C18.9087 30.6327 18.9673 30.5187 19.006 30.388C19.0447 30.2573 19.064 30.1187 19.064 29.972C19.064 29.8253 19.044 29.6867 19.004 29.556C18.964 29.4253 18.9047 29.31 18.826 29.21C18.7473 29.11 18.6487 29.0307 18.53 28.972C18.4113 28.9133 18.272 28.884 18.112 28.884C17.968 28.884 17.836 28.91 17.716 28.962C17.596 29.014 17.508 29.0973 17.452 29.212L17.444 29.212L17.444 28.144L17.104 28.144ZM18.704 29.948C18.704 30.0493 18.6933 30.148 18.672 30.244C18.6507 30.34 18.616 30.4253 18.568 30.5C18.52 30.5747 18.4567 30.6347 18.378 30.68C18.2993 30.7253 18.2013 30.748 18.084 30.748C17.9667 30.748 17.8667 30.726 17.784 30.682C17.7013 30.638 17.634 30.58 17.582 30.508C17.53 30.436 17.492 30.3527 17.468 30.258C17.444 30.1633 17.432 30.0653 17.432 29.964C17.432 29.868 17.4433 29.7733 17.466 29.68C17.4887 29.5867 17.5253 29.5033 17.576 29.43C17.6267 29.3567 17.692 29.2973 17.772 29.252C17.852 29.2067 17.9493 29.184 18.064 29.184C18.1733 29.184 18.2687 29.2053 18.35 29.248C18.4313 29.2907 18.498 29.348 18.55 29.42C18.602 29.492 18.6407 29.574 18.666 29.666C18.6913 29.758 18.704 29.852 18.704 29.948Z"/>
<path d="M20.276 31.276C20.236 31.3773 20.1967 31.4627 20.158 31.532C20.1193 31.6013 20.0767 31.658 20.03 31.702C19.9833 31.746 19.9313 31.778 19.874 31.798C19.8167 31.818 19.7507 31.828 19.676 31.828C19.636 31.828 19.596 31.8253 19.556 31.82C19.516 31.8147 19.4773 31.8053 19.44 31.792L19.44 31.48C19.4693 31.4933 19.5033 31.5047 19.542 31.514C19.5807 31.5233 19.6133 31.528 19.64 31.528C19.7093 31.528 19.7673 31.5113 19.814 31.478C19.8607 31.4447 19.896 31.3973 19.92 31.336L20.06 30.988L19.24 28.932L19.624 28.932L20.228 30.624L20.236 30.624L20.816 28.932L21.176 28.932L20.276 31.276Z"/>
<path d="M22.936 28.56L22.936 28.144L22.596 28.144L22.596 28.56L22.936 28.56ZM22.596 28.932L22.596 31L22.936 31L22.936 28.932L22.596 28.932Z"/>
<path d="M24.868 29.596L25.22 29.596C25.2067 29.4733 25.1747 29.3673 25.124 29.278C25.0733 29.1887 25.0087 29.1147 24.93 29.056C24.8513 28.9973 24.7607 28.954 24.658 28.926C24.5553 28.898 24.4453 28.884 24.328 28.884C24.1653 28.884 24.0227 28.9127 23.9 28.97C23.7773 29.0273 23.6753 29.106 23.594 29.206C23.5127 29.306 23.452 29.4233 23.412 29.558C23.372 29.6927 23.352 29.8373 23.352 29.992C23.352 30.1467 23.3727 30.2887 23.414 30.418C23.4553 30.5473 23.5167 30.6587 23.598 30.752C23.6793 30.8453 23.7807 30.9173 23.902 30.968C24.0233 31.0187 24.1627 31.044 24.32 31.044C24.584 31.044 24.7927 30.9747 24.946 30.836C25.0993 30.6973 25.1947 30.5 25.232 30.244L24.884 30.244C24.8627 30.404 24.8047 30.528 24.71 30.616C24.6153 30.704 24.484 30.748 24.316 30.748C24.2093 30.748 24.1173 30.7267 24.04 30.684C23.9627 30.6413 23.9 30.5847 23.852 30.514C23.804 30.4433 23.7687 30.3627 23.746 30.272C23.7233 30.1813 23.712 30.088 23.712 29.992C23.712 29.888 23.7227 29.7873 23.744 29.69C23.7653 29.5927 23.8007 29.5067 23.85 29.432C23.8993 29.3573 23.9653 29.2973 24.048 29.252C24.1307 29.2067 24.2333 29.184 24.356 29.184C24.5 29.184 24.6147 29.22 24.7 29.292C24.7853 29.364 24.8413 29.4653 24.868 29.596Z"/>
<path d="M25.86 29.968C25.86 29.8427 25.8767 29.7313 25.91 29.634C25.9433 29.5367 25.9893 29.4547 26.048 29.388C26.1067 29.3213 26.1753 29.2707 26.254 29.236C26.3327 29.2013 26.416 29.184 26.504 29.184C26.592 29.184 26.6753 29.2013 26.754 29.236C26.8327 29.2707 26.9013 29.3213 26.96 29.388C27.0187 29.4547 27.0647 29.5367 27.098 29.634C27.1313 29.7313 27.148 29.8427 27.148 29.968C27.148 30.0933 27.1313 30.2047 27.098 30.302C27.0647 30.3993 27.0187 30.4807 26.96 30.546C26.9013 30.6113 26.8327 30.6613 26.754 30.696C26.6753 30.7307 26.592 30.748 26.504 30.748C26.416 30.748 26.3327 30.7307 26.254 30.696C26.1753 30.6613 26.1067 30.6113 26.048 30.546C25.9893 30.4807 25.9433 30.3993 25.91 30.302C25.8767 30.2047 25.86 30.0933 25.86 29.968ZM25.5 29.968C25.5 30.12 25.5213 30.2613 25.564 30.392C25.6067 30.5227 25.6707 30.6367 25.756 30.734C25.8413 30.8313 25.9467 30.9073 26.072 30.962C26.1973 31.0167 26.3413 31.044 26.504 31.044C26.6693 31.044 26.814 31.0167 26.938 30.962C27.062 30.9073 27.1667 30.8313 27.252 30.734C27.3373 30.6367 27.4013 30.5227 27.444 30.392C27.4867 30.2613 27.508 30.12 27.508 29.968C27.508 29.816 27.4867 29.674 27.444 29.542C27.4013 29.41 27.3373 29.2953 27.252 29.198C27.1667 29.1007 27.062 29.024 26.938 28.968C26.814 28.912 26.6693 28.884 26.504 28.884C26.3413 28.884 26.1973 28.912 26.072 28.968C25.9467 29.024 25.8413 29.1007 25.756 29.198C25.6707 29.2953 25.6067 29.41 25.564 29.542C25.5213 29.674 25.5 29.816 25.5 29.968Z"/>
<path d="M27.908 28.932L27.908 31L28.248 31L28.248 29.832C28.248 29.7387 28.2607 29.6527 28.286 29.574C28.3113 29.4953 28.3493 29.4267 28.4 29.368C28.4507 29.3093 28.514 29.264 28.59 29.232C28.666 29.2 28.756 29.184 28.86 29.184C28.9907 29.184 29.0933 29.2213 29.168 29.296C29.2427 29.3707 29.28 29.472 29.28 29.6L29.28 31L29.62 31L29.62 29.64C29.62 29.528 29.6087 29.426 29.586 29.334C29.5633 29.242 29.524 29.1627 29.468 29.096C29.412 29.0293 29.3387 28.9773 29.248 28.94C29.1573 28.9027 29.044 28.884 28.908 28.884C28.6013 28.884 28.3773 29.0093 28.236 29.26L28.228 29.26L28.228 28.932L27.908 28.932Z"/>
<path d="M32.868 28.512L32.868 28.212L31.468 28.212L31.204 29.684L31.496 29.7C31.5627 29.62 31.6393 29.5553 31.726 29.506C31.8127 29.4567 31.912 29.432 32.024 29.432C32.12 29.432 32.2073 29.448 32.286 29.48C32.3647 29.512 32.432 29.5567 32.488 29.614C32.544 29.6713 32.5873 29.7393 32.618 29.818C32.6487 29.8967 32.664 29.9827 32.664 30.076C32.664 30.188 32.648 30.286 32.616 30.37C32.584 30.454 32.5407 30.524 32.486 30.58C32.4313 30.636 32.3673 30.678 32.294 30.706C32.2207 30.734 32.144 30.748 32.064 30.748C31.9787 30.748 31.9007 30.7353 31.83 30.71C31.7593 30.6847 31.698 30.6487 31.646 30.602C31.594 30.5553 31.5527 30.5007 31.522 30.438C31.4913 30.3753 31.4733 30.308 31.468 30.236L31.128 30.236C31.1307 30.364 31.156 30.4787 31.204 30.58C31.252 30.6813 31.3173 30.766 31.4 30.834C31.4827 30.902 31.578 30.954 31.686 30.99C31.794 31.026 31.9093 31.044 32.032 31.044C32.1973 31.044 32.342 31.018 32.466 30.966C32.59 30.914 32.6933 30.844 32.776 30.756C32.8587 30.668 32.9207 30.5673 32.962 30.454C33.0033 30.3407 33.024 30.224 33.024 30.104C33.024 29.9413 33 29.7993 32.952 29.678C32.904 29.5567 32.8387 29.4553 32.756 29.374C32.6733 29.2927 32.576 29.232 32.464 29.192C32.352 29.152 32.2333 29.132 32.108 29.132C32.012 29.132 31.9153 29.1487 31.818 29.182C31.7207 29.2153 31.6413 29.2667 31.58 29.336L31.572 29.328L31.724 28.512L32.868 28.512Z"/>
<path d="M34.568 30.036L33.616 30.036L34.56 28.648L34.568 28.648L34.568 30.036ZM34.888 30.036L34.888 28.164L34.616 28.164L33.324 30.008L33.324 30.336L34.568 30.336L34.568 31L34.888 31L34.888 30.336L35.272 30.336L35.272 30.036L34.888 30.036Z"/>
</g>
<g fill="#000000" opacity="1" stroke="none">
<path d="M1.896 34.232L1.896 36L2.236 36L2.236 34.232L2.636 34.232L2.636 33.932L2.236 33.932L2.236 33.644C2.236 33.5533 2.25867 33.492 2.304 33.46C2.34933 33.428 2.41333 33.412 2.496 33.412C2.52533 33.412 2.55733 33.414 2.592 33.418C2.62667 33.422 2.65867 33.4293 2.688 33.44L2.688 33.144C2.656 33.1333 2.61933 33.1253 2.578 33.12C2.53667 33.1147 2.5 33.112 2.468 33.112C2.28133 33.112 2.13933 33.1553 2.042 33.242C1.94467 33.3287 1.896 33.456 1.896 33.624L1.896 33.932L1.548 33.932L1.548 34.232L1.896 34.232Z"/>
<path d="M2.928 33.932L2.928 36L3.268 36L3.268 35.08C3.268 34.9467 3.28133 34.8287 3.308 34.726C3.33467 34.6233 3.37733 34.536 3.436 34.464C3.49467 34.392 3.572 34.3373 3.668 34.3C3.764 34.2627 3.88 34.244 4.016 34.244L4.016 33.884C3.832 33.8787 3.68 33.916 3.56 33.996C3.44 34.076 3.33867 34.2 3.256 34.368L3.248 34.368L3.248 33.932L2.928 33.932Z"/>
<path d="M4.448 34.968C4.448 34.8427 4.46467 34.7313 4.498 34.634C4.53133 34.5367 4.57733 34.4547 4.636 34.388C4.69467 34.3213 4.76333 34.2707 4.842 34.236C4.92067 34.2013 5.004 34.184 5.092 34.184C5.18 34.184 5.26333 34.2013 5.342 34.236C5.42067 34.2707 5.48933 34.3213 5.548 34.388C5.60667 34.4547 5.65267 34.5367 5.686 34.634C5.71933 34.7313 5.736 34.8427 5.736 34.968C5.736 35.0933 5.71933 35.2047 5.686 35.302C5.65267 35.3993 5.60667 35.4807 5.548 35.546C5.48933 35.6113 5.42067 35.6613 5.342 35.696C5.26333 35.7307 5.18 35.748 5.092 35.748C5.004 35.748 4.92067 35.7307 4.842 35.696C4.76333 35.6613 4.69467 35.6113 4.636 35.546C4.57733 35.4807 4.53133 35.3993 4.498 35.302C4.46467 35.2047 4.448 35.0933 4.448 34.968ZM4.088 34.968C4.088 35.12 4.10933 35.2613 4.152 35.392C4.19467 35.5227 4.25867 35.6367 4.344 35.734C4.42933 35.8313 4.53467 35.9073 4.66 35.962C4.78533 36.0167 4.92933 36.044 5.092 36.044C5.25733 36.044 5.402 36.0167 5.526 35.962C5.65 35.9073 5.75467 35.8313 5.84 35.734C5.92533 35.6367 5.98933 35.5227 6.032 35.392C6.07467 35.2613 6.096 35.12 6.096 34.968C6.096 34.816 6.07467 34.674 6.032 34.542C5.98933 34.41 5.92533 34.2953 5.84 34.198C5.75467 34.1007 5.65 34.024 5.526 33.968C5.402 33.912 5.25733 33.884 5.092 33.884C4.92933 33.884 4.78533 33.912 4.66 33.968C4.53467 34.024 4.42933 34.1007 4.344 34.198C4.25867 34.2953 4.19467 34.41 4.152 34.542C4.10933 34.674 4.088 34.816 4.088 34.968Z"/>
<path d="M6.496 33.932L6.496 36L6.836 36L6.836 34.712C6.836 34.672 6.846 34.622 6.866 34.562C6.886 34.502 6.918 34.444 6.962 34.388C7.006 34.332 7.06333 34.284 7.134 34.244C7.20467 34.204 7.28933 34.184 7.388 34.184C7.46533 34.184 7.52867 34.1953 7.578 34.218C7.62733 34.2407 7.66667 34.2727 7.696 34.314C7.72533 34.3553 7.746 34.404 7.758 34.46C7.77 34.516 7.776 34.5773 7.776 34.644L7.776 36L8.116 36L8.116 34.712C8.116 34.552 8.164 34.424 8.26 34.328C8.356 34.232 8.488 34.184 8.656 34.184C8.73867 34.184 8.806 34.196 8.858 34.22C8.91 34.244 8.95067 34.2767 8.98 34.318C9.00933 34.3593 9.02933 34.408 9.04 34.464C9.05067 34.52 9.056 34.58 9.056 34.644L9.056 36L9.396 36L9.396 34.484C9.396 34.3773 9.37933 34.286 9.346 34.21C9.31267 34.134 9.266 34.072 9.206 34.024C9.146 33.976 9.074 33.9407 8.99 33.918C8.906 33.8953 8.812 33.884 8.708 33.884C8.572 33.884 8.44733 33.9147 8.334 33.976C8.22067 34.0373 8.12933 34.124 8.06 34.236C8.01733 34.108 7.944 34.0173 7.84 33.964C7.736 33.9107 7.62 33.884 7.492 33.884C7.20133 33.884 6.97867 34.0013 6.824 34.236L6.816 34.236L6.816 33.932L6.496 33.932Z"/>
<path d="M11.492 33.932L11.492 33.312L11.152 33.312L11.152 33.932L10.8 33.932L10.8 34.232L11.152 34.232L11.152 35.548C11.152 35.644 11.1613 35.7213 11.18 35.78C11.1987 35.8387 11.2273 35.884 11.266 35.916C11.3047 35.948 11.3553 35.97 11.418 35.982C11.4807 35.994 11.556 36 11.644 36L11.904 36L11.904 35.7L11.748 35.7C11.6947 35.7 11.6513 35.698 11.618 35.694C11.5847 35.69 11.5587 35.6813 11.54 35.668C11.5213 35.6547 11.5087 35.636 11.502 35.612C11.4953 35.588 11.492 35.556 11.492 35.516L11.492 34.232L11.904 34.232L11.904 33.932L11.492 33.932Z"/>
<path d="M12.28 33.144L12.28 36L12.62 36L12.62 34.832C12.62 34.7387 12.6327 34.6527 12.658 34.574C12.6833 34.4953 12.7213 34.4267 12.772 34.368C12.8227 34.3093 12.886 34.264 12.962 34.232C13.038 34.2 13.128 34.184 13.232 34.184C13.3627 34.184 13.4653 34.2213 13.54 34.296C13.6147 34.3707 13.652 34.472 13.652 34.6L13.652 36L13.992 36L13.992 34.64C13.992 34.528 13.9807 34.426 13.958 34.334C13.9353 34.242 13.896 34.1627 13.84 34.096C13.784 34.0293 13.7107 33.9773 13.62 33.94C13.5293 33.9027 13.416 33.884 13.28 33.884C13.2187 33.884 13.1553 33.8907 13.09 33.904C13.0247 33.9173 12.962 33.938 12.902 33.966C12.842 33.994 12.788 34.03 12.74 34.074C12.692 34.118 12.6547 34.172 12.628 34.236L12.62 34.236L12.62 33.144L12.28 33.144Z"/>
<path d="M15.94 34.768L14.752 34.768C14.7573 34.688 14.7747 34.6127 14.804 34.542C14.8333 34.4713 14.8733 34.4093 14.924 34.356C14.9747 34.3027 15.0353 34.2607 15.106 34.23C15.1767 34.1993 15.256 34.184 15.344 34.184C15.4293 34.184 15.5073 34.1993 15.578 34.23C15.6487 34.2607 15.71 34.302 15.762 34.354C15.814 34.406 15.8553 34.468 15.886 34.54C15.9167 34.612 15.9347 34.688 15.94 34.768ZM16.268 35.344L15.932 35.344C15.9027 35.48 15.842 35.5813 15.75 35.648C15.658 35.7147 15.54 35.748 15.396 35.748C15.284 35.748 15.1867 35.7293 15.104 35.692C15.0213 35.6547 14.9533 35.6047 14.9 35.542C14.8467 35.4793 14.808 35.4073 14.784 35.326C14.76 35.2447 14.7493 35.1587 14.752 35.068L16.3 35.068C16.3053 34.9427 16.294 34.8107 16.266 34.672C16.238 34.5333 16.1873 34.4053 16.114 34.288C16.0407 34.1707 15.9433 34.074 15.822 33.998C15.7007 33.922 15.548 33.884 15.364 33.884C15.2227 33.884 15.0927 33.9107 14.974 33.964C14.8553 34.0173 14.7527 34.092 14.666 34.188C14.5793 34.284 14.512 34.3973 14.464 34.528C14.416 34.6587 14.392 34.8027 14.392 34.96C14.3973 35.1173 14.4207 35.2627 14.462 35.396C14.5033 35.5293 14.5653 35.644 14.648 35.74C14.7307 35.836 14.8327 35.9107 14.954 35.964C15.0753 36.0173 15.2187 36.044 15.384 36.044C15.6187 36.044 15.8133 35.9853 15.968 35.868C16.1227 35.7507 16.2227 35.576 16.268 35.344Z"/>
<path d="M17.816 33.144L17.816 36L18.176 36L18.176 33.708L18.184 33.708L19.676 36L20.092 36L20.092 33.144L19.732 33.144L19.732 35.46L19.724 35.46L18.22 33.144L17.816 33.144Z"/>
<path d="M20.9 34.968C20.9 34.8427 20.9167 34.7313 20.95 34.634C20.9833 34.5367 21.0293 34.4547 21.088 34.388C21.1467 34.3213 21.2153 34.2707 21.294 34.236C21.3727 34.2013 21.456 34.184 21.544 34.184C21.632 34.184 21.7153 34.2013 21.794 34.236C21.8727 34.2707 21.9413 34.3213 22 34.388C22.0587 34.4547 22.1047 34.5367 22.138 34.634C22.1713 34.7313 22.188 34.8427 22.188 34.968C22.188 35.0933 22.1713 35.2047 22.138 35.302C22.1047 35.3993 22.0587 35.4807 22 35.546C21.9413 35.6113 21.8727 35.6613 21.794 35.696C21.7153 35.7307 21.632 35.748 21.544 35.748C21.456 35.748 21.3727 35.7307 21.294 35.696C21.2153 35.6613 21.1467 35.6113 21.088 35.546C21.0293 35.4807 20.9833 35.3993 20.95 35.302C20.9167 35.2047 20.9 35.0933 20.9 34.968ZM20.54 34.968C20.54 35.12 20.5613 35.2613 20.604 35.392C20.6467 35.5227 20.7107 35.6367 20.796 35.734C20.8813 35.8313 20.9867 35.9073 21.112 35.962C21.2373 36.0167 21.3813 36.044 21.544 36.044C21.7093 36.044 21.854 36.0167 21.978 35.962C22.102 35.9073 22.2067 35.8313 22.292 35.734C22.3773 35.6367 22.4413 35.5227 22.484 35.392C22.5267 35.2613 22.548 35.12 22.548 34.968C22.548 34.816 22.5267 34.674 22.484 34.542C22.4413 34.41 22.3773 34.2953 22.292 34.198C22.2067 34.1007 22.102 34.024 21.978 33.968C21.854 33.912 21.7093 33.884 21.544 33.884C21.3813 33.884 21.2373 33.912 21.112 33.968C20.9867 34.024 20.8813 34.1007 20.796 34.198C20.7107 34.2953 20.6467 34.41 20.604 34.542C20.5613 34.674 20.54 34.816 20.54 34.968Z"/>
<path d="M24.66 36L24.66 33.932L24.32 33.932L24.32 35.1C24.32 35.1933 24.3073 35.2793 24.282 35.358C24.2567 35.4367 24.2187 35.5053 24.168 35.564C24.1173 35.6227 24.054 35.668 23.978 35.7C23.902 35.732 23.812 35.748 23.708 35.748C23.5773 35.748 23.4747 35.7107 23.4 35.636C23.3253 35.5613 23.288 35.46 23.288 35.332L23.288 33.932L22.948 33.932L22.948 35.292C22.948 35.404 22.9593 35.506 22.982 35.598C23.0047 35.69 23.044 35.7693 23.1 35.836C23.156 35.9027 23.2293 35.954 23.32 35.99C23.4107 36.026 23.524 36.044 23.66 36.044C23.812 36.044 23.944 36.014 24.056 35.954C24.168 35.894 24.26 35.8 24.332 35.672L24.34 35.672L24.34 36L24.66 36Z"/>
<path d="M25.172 33.932L25.172 36L25.512 36L25.512 34.832C25.512 34.7387 25.5247 34.6527 25.55 34.574C25.5753 34.4953 25.6133 34.4267 25.664 34.368C25.7147 34.3093 25.778 34.264 25.854 34.232C25.93 34.2 26.02 34.184 26.124 34.184C26.2547 34.184 26.3573 34.2213 26.432 34.296C26.5067 34.3707 26.544 34.472 26.544 34.6L26.544 36L26.884 36L26.884 34.64C26.884 34.528 26.8727 34.426 26.85 34.334C26.8273 34.242 26.788 34.1627 26.732 34.096C26.676 34.0293 26.6027 33.9773 26.512 33.94C26.4213 33.9027 26.308 33.884 26.172 33.884C25.8653 33.884 25.6413 34.0093 25.5 34.26L25.492 34.26L25.492 33.932L25.172 33.932Z"/>
<path d="M28.944 34.512L28.944 33.464L29.688 33.464C29.904 33.464 30.062 33.5087 30.162 33.598C30.262 33.6873 30.312 33.8173 30.312 33.988C30.312 34.1587 30.262 34.2893 30.162 34.38C30.062 34.4707 29.904 34.5147 29.688 34.512L28.944 34.512ZM28.564 33.144L28.564 36L28.944 36L28.944 34.832L29.816 34.832C30.104 34.8347 30.322 34.7613 30.47 34.612C30.618 34.4627 30.692 34.2547 30.692 33.988C30.692 33.7213 30.618 33.514 30.47 33.366C30.322 33.218 30.104 33.144 29.816 33.144L28.564 33.144Z"/>
<path d="M31.088 33.932L31.088 36L31.428 36L31.428 35.08C31.428 34.9467 31.4413 34.8287 31.468 34.726C31.4947 34.6233 31.5373 34.536 31.596 34.464C31.6547 34.392 31.732 34.3373 31.828 34.3C31.924 34.2627 32.04 34.244 32.176 34.244L32.176 33.884C31.992 33.8787 31.84 33.916 31.72 33.996C31.6 34.076 31.4987 34.2 31.416 34.368L31.408 34.368L31.408 33.932L31.088 33.932Z"/>
<path d="M32.608 34.968C32.608 34.8427 32.6247 34.7313 32.658 34.634C32.6913 34.5367 32.7373 34.4547 32.796 34.388C32.8547 34.3213 32.9233 34.2707 33.002 34.236C33.0807 34.2013 33.164 34.184 33.252 34.184C33.34 34.184 33.4233 34.2013 33.502 34.236C33.5807 34.2707 33.6493 34.3213 33.708 34.388C33.7667 34.4547 33.8127 34.5367 33.846 34.634C33.8793 34.7313 33.896 34.8427 33.896 34.968C33.896 35.0933 33.8793 35.2047 33.846 35.302C33.8127 35.3993 33.7667 35.4807 33.708 35.546C33.6493 35.6113 33.5807 35.6613 33.502 35.696C33.4233 35.7307 33.34 35.748 33.252 35.748C33.164 35.748 33.0807 35.7307 33.002 35.696C32.9233 35.6613 32.8547 35.6113 32.796 35.546C32.7373 35.4807 32.6913 35.3993 32.658 35.302C32.6247 35.2047 32.608 35.0933 32.608 34.968ZM32.248 34.968C32.248 35.12 32.2693 35.2613 32.312 35.392C32.3547 35.5227 32.4187 35.6367 32.504 35.734C32.5893 35.8313 32.6947 35.9073 32.82 35.962C32.9453 36.0167 33.0893 36.044 33.252 36.044C33.4173 36.044 33.562 36.0167 33.686 35.962C33.81 35.9073 33.9147 35.8313 34 35.734C34.0853 35.6367 34.1493 35.5227 34.192 35.392C34.2347 35.2613 34.256 35.12 34.256 34.968C34.256 34.816 34.2347 34.674 34.192 34.542C34.1493 34.41 34.0853 34.2953 34 34.198C33.9147 34.1007 33.81 34.024 33.686 33.968C33.562 33.912 33.4173 33.884 33.252 33.884C33.0893 33.884 32.9453 33.912 32.82 33.968C32.6947 34.024 32.5893 34.1007 32.504 34.198C32.4187 34.2953 32.3547 34.41 32.312 34.542C32.2693 34.674 32.248 34.816 32.248 34.968Z"/>
<path d="M35.016 33.56L35.016 33.144L34.676 33.144L34.676 33.56L35.016 33.56ZM35.016 36.26L35.016 33.932L34.676 33.932L34.676 36.204C34.676 36.3107 34.6627 36.3847 34.636 36.426C34.6093 36.4673 34.5587 36.488 34.484 36.488L34.412 36.488C34.4013 36.488 34.3913 36.4873 34.382 36.486C34.3727 36.4847 34.3613 36.4827 34.348 36.48L34.348 36.772C34.4013 36.7827 34.4587 36.788 34.52 36.788C34.672 36.788 34.7927 36.746 34.882 36.662C34.9713 36.578 35.016 36.444 35.016 36.26Z"/>
<path d="M36.98 34.768L35.792 34.768C35.7973 34.688 35.8147 34.6127 35.844 34.542C35.8733 34.4713 35.9133 34.4093 35.964 34.356C36.0147 34.3027 36.0753 34.2607 36.146 34.23C36.2167 34.1993 36.296 34.184 36.384 34.184C36.4693 34.184 36.5473 34.1993 36.618 34.23C36.6887 34.2607 36.75 34.302 36.802 34.354C36.854 34.406 36.8953 34.468 36.926 34.54C36.9567 34.612 36.9747 34.688 36.98 34.768ZM37.308 35.344L36.972 35.344C36.9427 35.48 36.882 35.5813 36.79 35.648C36.698 35.7147 36.58 35.748 36.436 35.748C36.324 35.748 36.2267 35.7293 36.144 35.692C36.0613 35.6547 35.9933 35.6047 35.94 35.542C35.8867 35.4793 35.848 35.4073 35.824 35.326C35.8 35.2447 35.7893 35.1587 35.792 35.068L37.34 35.068C37.3453 34.9427 37.334 34.8107 37.306 34.672C37.278 34.5333 37.2273 34.4053 37.154 34.288C37.0807 34.1707 36.9833 34.074 36.862 33.998C36.7407 33.922 36.588 33.884 36.404 33.884C36.2627 33.884 36.1327 33.9107 36.014 33.964C35.8953 34.0173 35.7927 34.092 35.706 34.188C35.6193 34.284 35.552 34.3973 35.504 34.528C35.456 34.6587 35.432 34.8027 35.432 34.96C35.4373 35.1173 35.4607 35.2627 35.502 35.396C35.5433 35.5293 35.6053 35.644 35.688 35.74C35.7707 35.836 35.8727 35.9107 35.994 35.964C36.1153 36.0173 36.2587 36.044 36.424 36.044C36.6587 36.044 36.8533 35.9853 37.008 35.868C37.1627 35.7507 37.2627 35.576 37.308 35.344Z"/>
<path d="M39.096 34.596L39.448 34.596C39.4347 34.4733 39.4027 34.3673 39.352 34.278C39.3013 34.1887 39.2367 34.1147 39.158 34.056C39.0793 33.9973 38.9887 33.954 38.886 33.926C38.7833 33.898 38.6733 33.884 38.556 33.884C38.3933 33.884 38.2507 33.9127 38.128 33.97C38.0053 34.0273 37.9033 34.106 37.822 34.206C37.7407 34.306 37.68 34.4233 37.64 34.558C37.6 34.6927 37.58 34.8373 37.58 34.992C37.58 35.1467 37.6007 35.2887 37.642 35.418C37.6833 35.5473 37.7447 35.6587 37.826 35.752C37.9073 35.8453 38.0087 35.9173 38.13 35.968C38.2513 36.0187 38.3907 36.044 38.548 36.044C38.812 36.044 39.0207 35.9747 39.174 35.836C39.3273 35.6973 39.4227 35.5 39.46 35.244L39.112 35.244C39.0907 35.404 39.0327 35.528 38.938 35.616C38.8433 35.704 38.712 35.748 38.544 35.748C38.4373 35.748 38.3453 35.7267 38.268 35.684C38.1907 35.6413 38.128 35.5847 38.08 35.514C38.032 35.4433 37.9967 35.3627 37.974 35.272C37.9513 35.1813 37.94 35.088 37.94 34.992C37.94 34.888 37.9507 34.7873 37.972 34.69C37.9933 34.5927 38.0287 34.5067 38.078 34.432C38.1273 34.3573 38.1933 34.2973 38.276 34.252C38.3587 34.2067 38.4613 34.184 38.584 34.184C38.728 34.184 38.8427 34.22 38.928 34.292C39.0133 34.364 39.0693 34.4653 39.096 34.596Z"/>
<path d="M40.312 33.932L40.312 33.312L39.972 33.312L39.972 33.932L39.62 33.932L39.62 34.232L39.972 34.232L39.972 35.548C39.972 35.644 39.9813 35.7213 40 35.78C40.0187 35.8387 40.0473 35.884 40.086 35.916C40.1247 35.948 40.1753 35.97 40.238 35.982C40.3007 35.994 40.376 36 40.464 36L40.724 36L40.724 35.7L40.568 35.7C40.5147 35.7 40.4713 35.698 40.438 35.694C40.4047 35.69 40.3787 35.6813 40.36 35.668C40.3413 35.6547 40.3287 35.636 40.322 35.612C40.3153 35.588 40.312 35.556 40.312 35.516L40.312 34.232L40.724 34.232L40.724 33.932L40.312 33.932Z"/>
</g>
</g>
</svg>
