<?xml version="1.0" encoding="UTF-8" standalone="no"?>
<!DOCTYPE svg PUBLIC "-//W3C//DTD SVG 1.1//EN" "http://www.w3.org/Graphics/SVG/1.1/DTD/svg11.dtd">
<!-- Created with Vectornator (http://vectornator.io/) -->
<svg height="35px" stroke-miterlimit="10" style="fill-ruleNonzero;clip-ruleEvenodd;stroke-linecapRound;stroke-linejoinRound;" version="1.1" viewBox="0 0 395 395" width="100%" xmlSpace="preserve" xmlns="http://www.w3.org/2000/svg" xmlnsVectornator="http://vectornator.io" xmlnsXlink="http://www.w3.org/1999/xlink">
<defs/>
<g id="Untitled" vectornatorLayerName="Untitled">
<path d="M2.16384e-14 104.546C-8.52651e-14 46.807 46.807 6.96332e-13 104.546 5.7279e-13L290.454 1.68269e-13C348.193 4.26326e-14 395 46.807 395 104.546L395 290.454C395 348.193 348.193 395 290.454 395L104.546 395C46.807 395 5.40012e-13 348.193 4.08003e-13 290.454L2.16384e-14 104.546Z" fill="#ffffff" fill-rule="nonzero" opacity="1" stroke="none" vectornatorLayerName="Rectangle 1"/>
<g opacity="1" vectornatorLayerName="g">
<path d="M313.002 0L82 0C36.785 0 0 36.784 0 81.998L0 312.991C0 358.211 36.785 395 82 395L313.002 395C358.216 395 395 358.211 395 312.991L395 81.998C395 36.784 358.216 0 313.002 0ZM380 312.991C380 349.94 349.944 380 313.002 380L82 380C45.056 380 15 349.94 15 312.991L15 81.998C15 45.056 45.056 15 82 15L313.002 15C349.944 15 380 45.056 380 81.998L380 312.991Z" fill="#000000" fill-rule="nonzero" opacity="1" stroke="none" vectornatorLayerName="path"/>
<path d="M285.273 137.172C304.513 137.172 320.119 121.582 320.119 102.342C320.119 83.101 304.514 67.5 285.273 67.5C266.037 67.5 250.431 83.101 250.431 102.342C250.432 121.582 266.037 137.172 285.273 137.172Z" fill="#000000" fill-rule="nonzero" opacity="1" stroke="none" vectornatorLayerName="path"/>
<path d="M344.196 227.304C341.424 190.398 336.973 171.266 328.323 159.065C317.188 143.361 300.263 142.045 285.273 142.045C270.284 142.045 253.359 143.36 242.225 159.065C233.577 171.264 229.126 190.396 226.352 227.303C225.894 233.39 230.459 238.696 236.546 239.154C236.827 239.175 237.107 239.185 237.386 239.185C243.115 239.185 247.96 234.765 248.397 228.96C250.08 206.57 252.441 191.198 255.796 181.235L255.796 227.492C255.796 229.813 256.073 232.068 256.58 234.235L256.58 327.5C256.58 334.622 262.353 340.396 269.476 340.396C276.598 340.396 282.372 334.623 282.372 327.5L282.372 256.825C283.327 256.918 284.294 256.969 285.273 256.969C286.255 256.969 287.226 256.918 288.184 256.824L288.184 327.5C288.184 334.622 293.957 340.396 301.08 340.396C308.202 340.396 313.975 334.623 313.975 327.5L313.975 234.193C314.476 232.039 314.749 229.798 314.749 227.492L314.749 181.224C318.108 191.187 320.468 206.562 322.15 228.959C322.607 235.047 327.913 239.618 334.001 239.153C340.089 238.697 344.653 233.392 344.196 227.304Z" fill="#000000" fill-rule="nonzero" opacity="1" stroke="none" vectornatorLayerName="path"/>
<path d="M109.727 137.172C128.965 137.172 144.573 121.582 144.573 102.342C144.573 83.101 128.966 67.5 109.727 67.5C90.489 67.5 74.881 83.101 74.881 102.342C74.881 121.582 90.488 137.172 109.727 137.172Z" fill="#000000" fill-rule="nonzero" opacity="1" stroke="none" vectornatorLayerName="path"/>
<path d="M152.775 159.065C141.641 143.36 124.716 142.045 109.726 142.045C94.737 142.045 77.812 143.36 66.677 159.065C58.027 171.265 53.576 190.398 50.803 227.304C50.346 233.392 54.909 238.698 60.997 239.155C67.085 239.625 72.39 235.049 72.848 228.961C74.531 206.56 76.89 191.167 80.249 181.203L80.249 214.542L69.271 263.858C69.057 264.818 69.292 265.822 69.906 266.59C70.521 267.357 71.451 267.803 72.434 267.803L81.021 267.803L81.021 327.5C81.021 334.622 86.794 340.396 93.917 340.396C101.039 340.396 106.813 334.623 106.813 327.5L106.813 267.802L112.624 267.802L112.624 327.5C112.624 334.622 118.397 340.396 125.52 340.396C132.642 340.396 138.415 334.623 138.415 327.5L138.415 267.802L147.016 267.802C147.023 267.802 147.031 267.803 147.036 267.802C148.826 267.802 150.277 266.352 150.277 264.562C150.277 264.193 150.214 263.838 150.101 263.507L139.203 214.551L139.203 181.205C142.561 191.169 144.919 206.561 146.602 228.96C147.039 234.766 151.884 239.185 157.613 239.185C157.89 239.185 158.172 239.175 158.453 239.154C164.541 238.697 169.104 233.391 168.647 227.303C165.874 190.396 161.424 171.265 152.775 159.065Z" fill="#000000" fill-rule="nonzero" opacity="1" stroke="none" vectornatorLayerName="path"/>
<path d="M197.5 61.241C191.831 61.241 187.236 65.836 187.236 71.505L187.236 323.498C187.236 329.167 191.831 333.762 197.5 333.762C203.169 333.762 207.764 329.167 207.764 323.498L207.764 71.505C207.764 65.836 203.169 61.241 197.5 61.241Z" fill="#000000" fill-rule="nonzero" opacity="1" stroke="none" vectornatorLayerName="path"/>
</g>
</g>
</svg>
